<?xml version="1.0" encoding="utf-8"?>
<!-- Generator: Adobe Illustrator 20.0.0, SVG Export Plug-In . SVG Version: 6.00 Build 0)  -->
<svg version="1.1" id="Layer_1" xmlns="http://www.w3.org/2000/svg" xmlns:xlink="http://www.w3.org/1999/xlink" x="0px" y="0px"
	 viewBox="0 0 111.5 199.5" style="enable-background:new 0 0 111.5 199.5;" xml:space="preserve">
<style type="text/css">
	.st0{fill:#FFFFFF;}
</style>
<path class="st0" d="M64,64v24.7v55.1c0,4.6-3.7,8.3-8.3,8.3s-8.3-3.7-8.3-8.3V88.7V64H0v81.2h0c0.8,30.1,25.4,54.3,55.7,54.3
	s54.9-24.2,55.7-54.3h0.1V64H64z M96.9,143.8c0,22.7-18.4,41.1-41.1,41.1s-41.1-18.4-41.1-41.1V78.6h18.2v65.3
	c0,12.6,10.3,22.9,22.9,22.9s22.9-10.3,22.9-22.9V78.6h18.2V143.8z"/>
<path class="st0" d="M0,0v47.5h111.5V0H0z M99.3,32.8H12.1V14.6h87.2V32.8z"/>
</svg>
