<?xml version="1.0" encoding="utf-8"?>
<!-- Generator: Adobe Illustrator 20.0.0, SVG Export Plug-In . SVG Version: 6.00 Build 0)  -->
<svg version="1.1" id="Layer_1" xmlns="http://www.w3.org/2000/svg" xmlns:xlink="http://www.w3.org/1999/xlink" x="0px" y="0px"
	 viewBox="0 0 32 32" style="enable-background:new 0 0 32 32;" xml:space="preserve">
<path d="M17.3,10.3v4v8.8c0,0.7-0.6,1.3-1.3,1.3s-1.3-0.6-1.3-1.3v-8.8v-4H7.2v13h0c0.1,4.8,4,8.7,8.8,8.7s8.6-3.9,8.8-8.7h0v-13
	H17.3z M22.5,23.1c0,3.6-2.9,6.6-6.5,6.6s-6.5-3-6.5-6.6V12.6h2.9v10.5c0,2,1.6,3.7,3.6,3.7s3.6-1.6,3.6-3.7V12.6h2.9V23.1z"/>
<path d="M7.2,0v7.6h17.5V0H7.2z M22.9,5.3H9.1V2.3h13.7V5.3z"/>
</svg>
